# 3ds Max Wavefront OBJ Exporter v0.97b - (c)2007 guruware
# File Created: 07.01.2016 21:56:09

mtllib rock_01_bake.mtl

#
# object PM3D_Sphere3D2_oPP
#

v  -0.8596 2.1430 0.1523
v  -0.8061 0.9293 -0.5444
v  -0.9416 0.3438 -0.1010
v  -0.9499 1.2288 0.4763
v  0.1432 1.6880 0.9064
v  -0.3838 1.2397 0.9684
v  0.2439 0.6121 0.9118
v  0.6131 0.2519 -0.4541
v  -0.0983 -0.1365 -0.2808
v  -0.2372 0.4493 -0.9684
v  -0.7705 0.2819 0.2555
v  0.0840 0.2840 0.8792
v  -0.5762 0.1091 -0.5078
v  0.0544 2.8605 -0.7106
v  0.1858 3.9306 -0.2834
v  0.5413 2.5105 -0.5933
v  0.7891 0.7987 0.5511
v  0.9499 1.2977 -0.2280
v  0.8872 2.4008 -0.0247
v  0.6746 3.1098 -0.2143
v  0.1301 3.9116 0.3684
v  -0.5509 1.6680 0.8281
v  0.3947 0.5531 -0.8167
v  -0.3104 3.3386 -0.2825
v  -0.7749 1.9201 -0.3619
v  -0.5135 3.0357 0.3506
v  -0.0267 -0.1288 0.4580
v  0.5737 0.0680 0.0842
v  -0.2655 2.5241 -0.7239
v  0.0461 4.1550 0.1808
v  -0.2039 3.7956 -0.0630
v  0.5045 3.6385 0.1388
v  0.5605 2.9069 0.5475
v  0.7726 1.4701 -0.6021
# 34 vertices

vn -0.9691 0.2395 0.0598
vn -0.8196 -0.0133 -0.5728
vn -0.8845 -0.4563 -0.0976
vn -0.9124 -0.0344 0.4079
vn 0.2245 0.1361 0.9649
vn -0.3280 -0.0491 0.9434
vn 0.3626 -0.1526 0.9194
vn 0.6983 -0.5668 -0.4372
vn -0.0387 -0.9600 -0.2773
vn -0.1791 -0.3378 -0.9240
vn -0.6804 -0.5927 0.4309
vn 0.0680 -0.5176 0.8529
vn -0.5789 -0.6627 -0.4751
vn 0.0299 0.2937 -0.9554
vn 0.1989 0.7245 -0.6599
vn 0.5671 0.1794 -0.8039
vn 0.8404 -0.1978 0.5047
vn 0.9849 -0.0760 -0.1554
vn 0.9882 0.1530 0.0057
vn 0.8670 0.3214 -0.3808
vn 0.1294 0.5377 0.8331
vn -0.4985 0.2018 0.8431
vn 0.4546 -0.2721 -0.8481
vn -0.7415 0.3832 -0.5507
vn -0.8730 0.1729 -0.4560
vn -0.7952 0.3774 0.4746
vn -0.0421 -0.9048 0.4237
vn 0.6988 -0.7076 0.1047
vn -0.4544 0.2250 -0.8619
vn -0.7543 0.6368 0.1599
vn -0.7907 0.5430 -0.2826
vn 0.7460 0.6505 0.1425
vn 0.8540 0.4885 0.1787
vn 0.6281 0.2428 0.7393
vn 0.7038 0.0384 -0.7094
# 35 vertex normals

vt 0.9061 0.4858 0.0000
vt 0.7950 0.3086 0.0000
vt 0.8550 0.2147 0.0000
vt 0.9631 0.3441 0.0000
vt 0.3822 0.7301 0.0000
vt 0.2960 0.7812 0.0000
vt 0.2639 0.6561 0.0000
vt 0.5459 0.1986 0.0000
vt 0.7545 0.1076 0.0000
vt 0.6791 0.2543 0.0000
vt 0.1012 0.7694 0.0000
vt 0.2173 0.6582 0.0000
vt 0.7710 0.1957 0.0000
vt 0.7082 0.5913 0.0000
vt 0.7496 0.7526 0.0000
vt 0.6206 0.5583 0.0000
vt 0.3177 0.5692 0.0000
vt 0.3984 0.4898 0.0000
vt 0.5446 0.5993 0.0000
vt 0.6351 0.6681 0.0000
vt 0.6741 0.8409 0.0000
vt 0.3421 0.8261 0.0000
vt 0.5818 0.2724 0.0000
vt 0.7973 0.6624 0.0000
vt 0.8274 0.4494 0.0000
vt 0.5518 0.9061 0.0000
vt 0.1459 0.6351 0.0000
vt 0.0324 0.5963 0.0000
vt 0.1852 0.4526 0.0000
vt 0.1860 0.5296 0.0000
vt 0.7431 0.5386 0.0000
vt 0.9127 0.6401 0.0000
vt 0.7550 0.8808 0.0000
vt 0.8080 0.7425 0.0000
vt 0.6778 0.7686 0.0000
vt 0.2432 0.8818 0.0000
vt 0.5695 0.7333 0.0000
vt 0.5056 0.4298 0.0000
vt 0.4383 0.3946 0.0000
vt 0.8942 0.1753 0.0000
# 40 texture coords

g PM3D_Sphere3D2_oPP
usemtl 01___Default
s 227
f 1/1/1 2/2/2 3/3/3 
s 163
f 4/4/4 1/1/1 3/3/3 
s 11
f 5/5/5 6/6/6 7/7/7 
s 20
f 8/8/8 9/9/9 10/10/10 
s 394
f 11/11/11 12/12/12 6/6/6 
s 424
f 9/9/9 3/3/3 13/13/13 
s 182
f 14/14/14 15/15/15 16/16/16 
s 33
f 17/17/17 18/18/18 19/19/19 
s 36
f 20/20/20 16/16/16 15/15/15 
s 262
f 21/21/21 22/22/22 5/5/5 
s 84
f 14/14/14 23/23/23 10/10/10 
s 353
f 3/3/3 2/2/2 10/10/10 
s 131
f 1/1/1 24/24/24 25/25/25 
s 14
f 26/26/26 22/22/22 21/21/21 
s 386
f 12/12/12 11/11/11 27/27/27 
s 301
f 9/28/9 8/29/8 28/30/28 
s 23
f 14/14/14 16/16/16 23/23/23 
s 32
f 28/30/28 8/29/8 18/18/18 
s 193
f 2/2/2 29/31/29 10/10/10 
f 25/25/25 24/24/24 29/31/29 
s 32
f 28/30/28 12/12/12 27/27/27 
s 3
f 7/7/7 17/17/17 5/5/5 
s 74
f 26/32/26 30/33/30 31/34/31 
s 800
f 30/33/32 32/35/33 15/15/15 
s 143
f 22/22/22 26/26/26 4/36/4 
s 395
f 11/11/11 6/6/6 4/36/4 
s 192
f 30/33/30 15/15/15 31/34/31 
s 128
f 24/24/24 15/15/15 29/31/29 
s 395
f 27/27/27 11/11/11 9/28/9 
s 301
f 28/30/28 27/27/27 9/28/9 
s 289
f 33/37/34 17/17/17 19/19/19 
s 800
f 32/35/33 21/21/21 33/37/34 
s 381
f 10/10/10 9/9/9 13/13/13 
s 4
f 8/8/8 10/10/10 23/23/23 
s 53
f 8/8/8 23/23/23 34/38/35 
s 79
f 1/1/1 26/32/26 31/34/31 
s 143
f 4/4/4 26/32/26 1/1/1 
s 23
f 16/16/16 34/38/35 23/23/23 
s 39
f 16/16/16 20/20/20 34/38/35 
s 33
f 12/12/12 28/30/28 17/17/17 
f 17/17/17 28/30/28 18/18/18 
s 227
f 25/25/25 29/31/29 2/2/2 
s 99
f 1/1/1 25/25/25 2/2/2 
s 33
f 34/38/35 19/19/19 18/18/18 
s 37
f 34/38/35 18/39/18 8/8/8 
s 544
f 15/15/15 32/35/33 20/20/20 
f 32/35/33 33/37/34 19/19/19 
s 384
f 11/40/11 4/4/4 3/3/3 
s 256
f 9/9/9 11/40/11 3/3/3 
s 805
f 20/20/20 32/35/33 19/19/19 
s 37
f 34/38/35 20/20/20 19/19/19 
s 775
f 33/37/34 21/21/21 5/5/5 
s 291
f 17/17/17 33/37/34 5/5/5 
s 211
f 14/14/14 29/31/29 15/15/15 
s 247
f 29/31/29 14/14/14 10/10/10 
s 143
f 22/22/22 4/36/4 6/6/6 
s 15
f 5/5/5 22/22/22 6/6/6 
s 1
f 3/3/3 10/10/10 13/13/13 
s 203
f 31/34/31 15/15/15 24/24/24 
f 1/1/1 31/34/31 24/24/24 
s 33
f 12/12/12 17/17/17 7/7/7 
s 43
f 6/6/6 12/12/12 7/7/7 
s 2
f 26/26/26 21/21/21 30/33/30 
s 512
f 21/21/21 32/35/33 30/33/32 
# 64 faces

